<svg width="34" height="34" viewBox="0 0 34 34" fill="none" xmlns="http://www.w3.org/2000/svg">
<path d="M17 7.43736C16.5976 7.43727 16.2034 7.55146 15.8633 7.76664C15.5232 7.98182 15.2512 8.28915 15.079 8.65286C14.8938 9.02813 14.5685 9.31553 14.1733 9.45298C13.778 9.59043 13.3445 9.56692 12.9665 9.38751C12.5884 9.20811 12.2961 8.88721 12.1526 8.49411C12.0091 8.10101 12.026 7.66724 12.1996 7.28648C12.5551 6.5373 13.0811 5.88174 13.7354 5.37227C14.3897 4.86281 15.1542 4.51359 15.9676 4.35257C16.7811 4.19156 17.621 4.22321 18.42 4.445C19.2191 4.66679 19.9551 5.07255 20.5692 5.62982C21.1833 6.18709 21.6584 6.88038 21.9565 7.6542C22.2546 8.42802 22.3675 9.26088 22.286 10.0861C22.2044 10.9114 21.9309 11.7061 21.4872 12.4066C21.0434 13.1072 20.4419 13.6941 19.7306 14.1205C19.3905 14.3152 19.0823 14.561 18.8169 14.8494C18.6171 15.0831 18.5937 15.2234 18.5937 15.2871C18.5937 15.4359 18.6745 15.5761 18.8062 15.6484L29.6607 21.6791C30.4956 22.1418 31.153 22.8689 31.5296 23.746C31.9062 24.623 31.9806 25.6004 31.7412 26.5244C31.5019 27.4484 30.9622 28.2666 30.2071 28.8505C29.452 29.4343 28.5243 29.7507 27.5697 29.7499H6.42175C5.46846 29.7495 4.54226 29.4327 3.78839 28.8493C3.03451 28.2658 2.49561 27.4487 2.25617 26.5259C2.01674 25.6032 2.09033 24.6271 2.4654 23.7507C2.84046 22.8743 3.49579 22.1472 4.32862 21.6834L12.5077 17.1359C12.691 17.0283 12.8939 16.9584 13.1046 16.9304C13.3153 16.9024 13.5294 16.9168 13.7344 16.9727C13.9394 17.0287 14.1312 17.1251 14.2984 17.2563C14.4656 17.3874 14.6048 17.5507 14.708 17.7365C14.8112 17.9223 14.8762 18.1269 14.8991 18.3381C14.9221 18.5494 14.9025 18.7631 14.8417 18.9667C14.7808 19.1703 14.6798 19.3597 14.5447 19.5237C14.4095 19.6877 14.243 19.8231 14.0547 19.9217L5.87774 24.4692C5.66035 24.5888 5.48901 24.7774 5.39084 25.0053C5.29266 25.2332 5.27324 25.4872 5.33565 25.7274C5.39806 25.9675 5.53874 26.18 5.73544 26.3312C5.93214 26.4824 6.17364 26.5638 6.42175 26.5624H27.5697C27.8176 26.5628 28.0586 26.4808 28.2548 26.3293C28.451 26.1778 28.5912 25.9654 28.6535 25.7255C28.7158 25.4856 28.6966 25.2318 28.5989 25.004C28.5012 24.7762 28.3305 24.5873 28.1137 24.4671L17.255 18.4342C16.6951 18.1215 16.2285 17.6653 15.9033 17.1126C15.578 16.5599 15.4057 15.9306 15.4041 15.2892C15.4041 14.2459 15.861 13.4022 16.3816 12.7881C16.8916 12.1825 17.5291 11.7214 18.088 11.3856C18.4866 11.147 18.7961 10.7843 18.9689 10.353C19.1418 9.92175 19.1686 9.44574 19.0451 8.99782C18.9217 8.54991 18.6549 8.1548 18.2855 7.87297C17.9162 7.59114 17.4646 7.43813 17 7.43736Z" fill="#F7F7F7"/>
</svg>
