<svg width="43" height="43" viewBox="0 0 43 43" fill="none" xmlns="http://www.w3.org/2000/svg">
<path d="M12.1274 7.81787C11.9117 7.81753 11.7031 7.89473 11.5396 8.03538C11.3761 8.17603 11.2686 8.37076 11.2368 8.58405C11.1455 9.20169 10.4243 14.1154 10.4243 16.2876C10.4243 17.7183 11.0406 19.007 12.0192 19.8996C12.472 20.312 12.7046 20.7289 12.7046 21.0997C12.7046 21.129 12.704 21.1531 12.7014 21.1791C12.6401 21.944 12.0531 29.3022 12.0531 30.6209C12.0531 31.4849 12.3963 32.3134 13.0072 32.9244C13.6181 33.5353 14.4467 33.8785 15.3107 33.8785C16.1746 33.8785 17.0032 33.5353 17.6141 32.9244C18.225 32.3134 18.5683 31.4849 18.5683 30.6209C18.5683 29.3022 17.9812 21.944 17.92 21.1791L17.9167 21.0997C17.9167 20.7289 18.1493 20.312 18.6021 19.8996C19.1053 19.4421 19.5071 18.8844 19.7818 18.2623C20.0565 17.6403 20.1979 16.9676 20.197 16.2876C20.197 14.1154 19.4758 9.19908 19.3846 8.58405C19.3527 8.37087 19.2453 8.17623 19.082 8.03559C18.9186 7.89496 18.7102 7.81769 18.4946 7.81787H18.4829C17.9643 7.81787 17.5923 8.24461 17.5923 8.71045V15.5579C17.5923 15.6537 17.5734 15.7486 17.5367 15.8371C17.5001 15.9256 17.4463 16.0061 17.3786 16.0738C17.3108 16.1416 17.2304 16.1954 17.1418 16.232C17.0533 16.2687 16.9584 16.2876 16.8626 16.2876C16.7668 16.2876 16.6719 16.2687 16.5833 16.232C16.4948 16.1954 16.4144 16.1416 16.3466 16.0738C16.2789 16.0061 16.2251 15.9256 16.1884 15.8371C16.1518 15.7486 16.1329 15.6537 16.1329 15.5579V8.67722C16.1365 8.56558 16.1173 8.45437 16.0766 8.35038C16.0358 8.24638 15.9743 8.15177 15.8958 8.07231C15.8173 7.99285 15.7235 7.93021 15.62 7.8882C15.5165 7.84619 15.4055 7.82568 15.2938 7.82794C15.1821 7.8302 15.0721 7.85517 14.9704 7.90133C14.8687 7.9475 14.7774 8.01388 14.7022 8.09645C14.627 8.17902 14.5693 8.27604 14.5328 8.3816C14.4963 8.48716 14.4817 8.59905 14.4898 8.71045V15.5579C14.4898 15.7514 14.4129 15.937 14.276 16.0738C14.1392 16.2107 13.9536 16.2876 13.7601 16.2876C13.5665 16.2876 13.3809 16.2107 13.2441 16.0738C13.1073 15.937 13.0304 15.7514 13.0304 15.5579V8.71045C13.0304 8.47406 12.9366 8.24733 12.7696 8.07999C12.6027 7.91266 12.3761 7.81839 12.1398 7.81787H12.1274ZM25.3505 20.8482L25.3095 21.4424C25.2482 22.3297 25.1662 23.5272 25.0854 24.7677C24.9238 27.2265 24.7577 29.9114 24.7577 30.6209C24.7577 31.4849 25.1009 32.3134 25.7118 32.9244C26.3227 33.5353 27.1513 33.8785 28.0152 33.8785C28.8792 33.8785 29.7078 33.5353 30.3187 32.9244C30.9296 32.3134 31.2728 31.4849 31.2728 30.6209C31.2728 29.8332 31.0676 26.846 30.8897 24.2673L30.8838 24.1826C30.7418 22.116 30.6213 20.353 30.6213 20.0338V8.63227C30.6213 8.18272 30.2564 7.81787 29.8069 7.81787H29.4811C25.4333 7.81787 22.1516 11.0996 22.1516 15.1474V18.7308C22.1516 19.2923 22.3747 19.8309 22.7718 20.228C23.1689 20.6251 23.7074 20.8482 24.269 20.8482H25.3505Z" fill="#F7F7F7"/>
</svg>
