<svg width="39" height="37" viewBox="0 0 39 37" fill="none" xmlns="http://www.w3.org/2000/svg">
<path d="M12.025 10.7915H7.475C7.21641 10.7915 6.96842 10.889 6.78557 11.0624C6.60272 11.2359 6.5 11.4712 6.5 11.7165V25.2832C6.5 25.4046 6.52522 25.5249 6.57422 25.6372C6.62322 25.7494 6.69503 25.8514 6.78557 25.9372C6.87611 26.0231 6.98359 26.0913 7.10188 26.1378C7.22018 26.1842 7.34696 26.2082 7.475 26.2082H12.025C12.153 26.2082 12.2798 26.1842 12.3981 26.1378C12.5164 26.0913 12.6239 26.0231 12.7144 25.9372C12.805 25.8514 12.8768 25.7494 12.9258 25.6372C12.9748 25.5249 13 25.4046 13 25.2832V11.7165C13 11.4712 12.8973 11.2359 12.7144 11.0624C12.5316 10.889 12.2836 10.7915 12.025 10.7915ZM31.525 10.7915H26.975C26.7164 10.7915 26.4684 10.889 26.2856 11.0624C26.1027 11.2359 26 11.4712 26 11.7165V25.2832C26 25.4046 26.0252 25.5249 26.0742 25.6372C26.1232 25.7494 26.195 25.8514 26.2856 25.9372C26.3761 26.0231 26.4836 26.0913 26.6019 26.1378C26.7202 26.1842 26.847 26.2082 26.975 26.2082H31.525C31.653 26.2082 31.7798 26.1842 31.8981 26.1378C32.0164 26.0913 32.1239 26.0231 32.2144 25.9372C32.305 25.8514 32.3768 25.7494 32.4258 25.6372C32.4748 25.5249 32.5 25.4046 32.5 25.2832V11.7165C32.5 11.4712 32.3973 11.2359 32.2144 11.0624C32.0316 10.889 31.7836 10.7915 31.525 10.7915Z" stroke="#F7F7F7" stroke-width="2.5" stroke-linecap="round" stroke-linejoin="round"/>
<path d="M13 18.5H26M1.625 22.2V14.8C1.625 14.5547 1.72772 14.3194 1.91057 14.1459C2.09342 13.9725 2.34141 13.875 2.6 13.875H5.525C5.78359 13.875 6.03158 13.9725 6.21443 14.1459C6.39728 14.3194 6.5 14.5547 6.5 14.8V22.2C6.5 22.4453 6.39728 22.6806 6.21443 22.8541C6.03158 23.0275 5.78359 23.125 5.525 23.125H2.6C2.34141 23.125 2.09342 23.0275 1.91057 22.8541C1.72772 22.6806 1.625 22.4453 1.625 22.2ZM37.375 22.2V14.8C37.375 14.5547 37.2723 14.3194 37.0894 14.1459C36.9066 13.9725 36.6586 13.875 36.4 13.875H33.475C33.2164 13.875 32.9684 13.9725 32.7856 14.1459C32.6027 14.3194 32.5 14.5547 32.5 14.8V22.2C32.5 22.4453 32.6027 22.6806 32.7856 22.8541C32.9684 23.0275 33.2164 23.125 33.475 23.125H36.4C36.6586 23.125 36.9066 23.0275 37.0894 22.8541C37.2723 22.6806 37.375 22.4453 37.375 22.2Z" stroke="#F7F7F7" stroke-width="2.5" stroke-linecap="round" stroke-linejoin="round"/>
</svg>
