<svg width="30" height="30" viewBox="0 0 30 30" fill="none" xmlns="http://www.w3.org/2000/svg">
<path d="M8.75 16.25C10.825 16.25 12.5 14.575 12.5 12.5C12.5 10.425 10.825 8.75 8.75 8.75C6.675 8.75 5 10.425 5 12.5C5 14.575 6.675 16.25 8.75 16.25ZM23.75 8.75H16.25C14.875 8.75 13.75 9.875 13.75 11.25V17.5H3.75V7.5C3.75 6.8125 3.1875 6.25 2.5 6.25C1.8125 6.25 1.25 6.8125 1.25 7.5V23.75C1.25 24.4375 1.8125 25 2.5 25C3.1875 25 3.75 24.4375 3.75 23.75V21.25H26.25V23.75C26.25 24.4375 26.8125 25 27.5 25C28.1875 25 28.75 24.4375 28.75 23.75V13.75C28.75 10.9875 26.5125 8.75 23.75 8.75Z" fill="#F7F7F7"/>
</svg>
