<svg width="39" height="39" viewBox="0 0 39 39" fill="none" xmlns="http://www.w3.org/2000/svg">
<path d="M6.5 6.5H9.14225C10.0636 6.5 10.5235 6.5 10.8908 6.7015C11.0422 6.78485 11.1793 6.89182 11.297 7.01837C11.5814 7.3255 11.6935 7.77238 11.9161 8.66613L12.2119 9.8475C12.376 10.504 12.4589 10.8322 12.5856 11.1085C12.8023 11.5799 13.1287 11.9926 13.5375 12.312C13.9462 12.6315 14.4256 12.8484 14.9354 12.9448C15.2344 13 15.5724 13 16.25 13" stroke="#F7F7F7" stroke-width="3" stroke-linecap="round"/>
<path d="M29.25 27.625H12.2687C12.0331 27.625 11.9145 27.625 11.8235 27.6152C11.5979 27.5901 11.38 27.5179 11.184 27.4034C10.988 27.2889 10.8181 27.1346 10.6854 26.9504C10.5526 26.7662 10.4599 26.5562 10.4133 26.3341C10.3667 26.1119 10.3671 25.8824 10.4146 25.6604C10.452 25.5165 10.4959 25.3745 10.5462 25.2346C10.6307 24.9844 10.6714 24.8593 10.7185 24.7471C10.9498 24.1931 11.3301 23.7139 11.8171 23.3628C12.3042 23.0117 12.879 22.8024 13.4777 22.7581C13.598 22.75 13.7312 22.75 13.9929 22.75H22.75" stroke="#F7F7F7" stroke-width="3" stroke-linecap="round" stroke-linejoin="round"/>
<path d="M23.6081 22.75H17.8328C15.8568 22.75 14.8688 22.75 14.1067 22.3031C13.7854 22.114 13.499 21.8711 13.2601 21.5849C12.6913 20.9056 12.5288 19.9306 12.2054 17.9822C11.8756 16.0079 11.7114 15.0199 12.1031 14.2886C12.266 13.9835 12.492 13.7165 12.7661 13.5054C13.4226 13 14.4236 13 16.4256 13H27.2416C29.5978 13 30.7759 13 31.2537 13.7702C31.7298 14.5421 31.2017 15.5951 30.1487 17.7028L29.4223 19.1571C28.5481 20.9056 28.1109 21.7799 27.3261 22.2641C26.5396 22.75 25.5629 22.75 23.6081 22.75Z" stroke="#F7F7F7" stroke-width="3" stroke-linecap="round"/>
<path d="M27.625 34.125C28.5225 34.125 29.25 33.3975 29.25 32.5C29.25 31.6025 28.5225 30.875 27.625 30.875C26.7275 30.875 26 31.6025 26 32.5C26 33.3975 26.7275 34.125 27.625 34.125Z" fill="#F7F7F7"/>
<path d="M14.625 34.125C15.5225 34.125 16.25 33.3975 16.25 32.5C16.25 31.6025 15.5225 30.875 14.625 30.875C13.7275 30.875 13 31.6025 13 32.5C13 33.3975 13.7275 34.125 14.625 34.125Z" fill="#F7F7F7"/>
</svg>
